<svg xmlns="http://www.w3.org/2000/svg" xmlns:xlink="http://www.w3.org/1999/xlink" width="221" zoomAndPan="magnify" viewBox="0 0 165.75 38.249999" height="51" preserveAspectRatio="xMidYMid meet" version="1.0"><defs><g/><clipPath id="992f93ffee"><path d="M 2.207031 7.375 L 20 7.375 L 20 32.386719 L 2.207031 32.386719 Z M 2.207031 7.375 " clip-rule="nonzero"/></clipPath><clipPath id="75024a3871"><path d="M 19.398438 25.792969 L 19.398438 32.039062 L 3.011719 32.039062 C 2.789062 32.039062 2.601562 31.960938 2.441406 31.804688 C 2.285156 31.644531 2.207031 31.457031 2.207031 31.234375 L 2.207031 8.183594 C 2.207031 7.960938 2.285156 7.769531 2.441406 7.613281 C 2.601562 7.457031 2.789062 7.378906 3.011719 7.378906 L 8.457031 7.378906 L 8.457031 25.789062 " clip-rule="nonzero"/></clipPath><clipPath id="b60b1ca825"><path d="M 9 7.375 L 26.480469 7.375 L 26.480469 32.386719 L 9 32.386719 Z M 9 7.375 " clip-rule="nonzero"/></clipPath><clipPath id="7ac3e69b67"><path d="M 26.617188 8.183594 L 26.617188 31.230469 C 26.617188 31.453125 26.539062 31.644531 26.382812 31.800781 C 26.226562 31.960938 26.035156 32.039062 25.8125 32.039062 L 20.367188 32.039062 L 20.367188 13.628906 L 9.425781 13.628906 L 9.425781 7.375 L 25.8125 7.375 C 26.035156 7.375 26.226562 7.453125 26.382812 7.613281 C 26.539062 7.769531 26.617188 7.960938 26.617188 8.183594 Z M 26.617188 8.183594 " clip-rule="nonzero"/></clipPath></defs><g clip-path="url(#992f93ffee)"><g clip-path="url(#75024a3871)"><path fill="#3a96f2" d="M 2.207031 7.378906 L 2.207031 32.039062 L 19.398438 32.039062 L 19.398438 7.378906 Z M 2.207031 7.378906 " fill-opacity="1" fill-rule="nonzero"/></g></g><g clip-path="url(#b60b1ca825)"><g clip-path="url(#7ac3e69b67)"><path fill="#3a96f2" d="M 9.425781 7.375 L 9.425781 32.039062 L 26.480469 32.039062 L 26.480469 7.375 Z M 9.425781 7.375 " fill-opacity="1" fill-rule="nonzero"/></g></g><path fill="#3a96f2" d="M 14.695312 24.316406 L 18.160156 20.851562 C 18.300781 20.707031 18.332031 20.546875 18.253906 20.363281 C 18.175781 20.179688 18.039062 20.085938 17.839844 20.089844 L 10.945312 20.171875 C 10.75 20.171875 10.613281 20.265625 10.539062 20.449219 C 10.464844 20.632812 10.496094 20.792969 10.636719 20.933594 L 14.070312 24.316406 C 14.15625 24.402344 14.261719 24.445312 14.382812 24.445312 C 14.503906 24.445312 14.609375 24.402344 14.695312 24.316406 Z M 14.695312 24.316406 " fill-opacity="1" fill-rule="nonzero"/><path fill="#3a96f2" d="M 14.015625 15.101562 L 10.550781 18.566406 C 10.410156 18.707031 10.378906 18.871094 10.457031 19.054688 C 10.535156 19.238281 10.671875 19.328125 10.871094 19.328125 L 17.765625 19.246094 C 17.964844 19.242188 18.097656 19.152344 18.171875 18.96875 C 18.246094 18.785156 18.214844 18.621094 18.074219 18.484375 L 14.644531 15.097656 C 14.558594 15.011719 14.453125 14.96875 14.332031 14.96875 C 14.207031 14.96875 14.105469 15.015625 14.015625 15.101562 Z M 14.015625 15.101562 " fill-opacity="1" fill-rule="nonzero"/><g fill="#3a96f2" fill-opacity="1"><g transform="translate(33.642751, 26.719122)"><g><path d="M 1.0625 0 L 1.0625 -16.40625 L 5.515625 -16.40625 L 5.515625 -3.59375 L 12.140625 -3.59375 L 12.140625 0 Z M 1.0625 0 "/></g></g></g><g fill="#3a96f2" fill-opacity="1"><g transform="translate(46.524232, 26.719122)"><g><path d="M 1.125 0 L 1.125 -12.3125 L 5.546875 -12.3125 L 5.546875 0 Z M 3.34375 -13.59375 C 2.738281 -13.59375 2.222656 -13.789062 1.796875 -14.1875 C 1.367188 -14.582031 1.15625 -15.054688 1.15625 -15.609375 C 1.15625 -16.160156 1.367188 -16.632812 1.796875 -17.03125 C 2.222656 -17.425781 2.734375 -17.625 3.328125 -17.625 C 3.929688 -17.625 4.445312 -17.425781 4.875 -17.03125 C 5.300781 -16.632812 5.515625 -16.160156 5.515625 -15.609375 C 5.515625 -15.054688 5.300781 -14.582031 4.875 -14.1875 C 4.445312 -13.789062 3.9375 -13.59375 3.34375 -13.59375 Z M 3.34375 -13.59375 "/></g></g></g><g fill="#3a96f2" fill-opacity="1"><g transform="translate(53.189276, 26.719122)"><g><path d="M 7.046875 4.875 C 5.816406 4.875 4.757812 4.695312 3.875 4.34375 C 3 4 2.316406 3.519531 1.828125 2.90625 C 1.347656 2.289062 1.082031 1.585938 1.03125 0.796875 L 5.28125 0.796875 C 5.332031 1.054688 5.441406 1.265625 5.609375 1.421875 C 5.773438 1.585938 5.992188 1.707031 6.265625 1.78125 C 6.535156 1.851562 6.835938 1.890625 7.171875 1.890625 C 7.742188 1.890625 8.21875 1.75 8.59375 1.46875 C 8.976562 1.195312 9.171875 0.695312 9.171875 -0.03125 L 9.171875 -2.109375 L 9.03125 -2.109375 C 8.875 -1.691406 8.628906 -1.335938 8.296875 -1.046875 C 7.960938 -0.753906 7.5625 -0.53125 7.09375 -0.375 C 6.632812 -0.226562 6.128906 -0.15625 5.578125 -0.15625 C 4.703125 -0.15625 3.894531 -0.359375 3.15625 -0.765625 C 2.425781 -1.171875 1.835938 -1.8125 1.390625 -2.6875 C 0.953125 -3.570312 0.734375 -4.726562 0.734375 -6.15625 C 0.734375 -7.632812 0.960938 -8.835938 1.421875 -9.765625 C 1.890625 -10.703125 2.488281 -11.382812 3.21875 -11.8125 C 3.957031 -12.25 4.734375 -12.46875 5.546875 -12.46875 C 6.148438 -12.46875 6.679688 -12.359375 7.140625 -12.140625 C 7.609375 -11.929688 7.992188 -11.648438 8.296875 -11.296875 C 8.609375 -10.953125 8.84375 -10.570312 9 -10.15625 L 9.109375 -10.15625 L 9.109375 -12.3125 L 13.53125 -12.3125 L 13.53125 -0.03125 C 13.53125 1.007812 13.257812 1.894531 12.71875 2.625 C 12.1875 3.351562 11.429688 3.910156 10.453125 4.296875 C 9.484375 4.679688 8.347656 4.875 7.046875 4.875 Z M 7.21875 -3.296875 C 7.613281 -3.296875 7.957031 -3.410156 8.25 -3.640625 C 8.539062 -3.867188 8.765625 -4.191406 8.921875 -4.609375 C 9.085938 -5.035156 9.171875 -5.550781 9.171875 -6.15625 C 9.171875 -6.757812 9.085938 -7.28125 8.921875 -7.71875 C 8.765625 -8.15625 8.539062 -8.488281 8.25 -8.71875 C 7.957031 -8.945312 7.613281 -9.0625 7.21875 -9.0625 C 6.8125 -9.0625 6.460938 -8.945312 6.171875 -8.71875 C 5.890625 -8.488281 5.671875 -8.15625 5.515625 -7.71875 C 5.359375 -7.28125 5.28125 -6.757812 5.28125 -6.15625 C 5.28125 -5.539062 5.359375 -5.019531 5.515625 -4.59375 C 5.671875 -4.175781 5.890625 -3.851562 6.171875 -3.625 C 6.460938 -3.40625 6.8125 -3.296875 7.21875 -3.296875 Z M 7.21875 -3.296875 "/></g></g></g><g fill="#3a96f2" fill-opacity="1"><g transform="translate(67.833148, 26.719122)"><g><path d="M 5.546875 -6.921875 L 5.546875 0 L 1.125 0 L 1.125 -16.40625 L 5.390625 -16.40625 L 5.390625 -9.96875 L 5.515625 -9.96875 C 5.785156 -10.75 6.242188 -11.359375 6.890625 -11.796875 C 7.546875 -12.242188 8.328125 -12.46875 9.234375 -12.46875 C 10.097656 -12.46875 10.851562 -12.269531 11.5 -11.875 C 12.144531 -11.476562 12.644531 -10.929688 13 -10.234375 C 13.351562 -9.546875 13.53125 -8.753906 13.53125 -7.859375 L 13.53125 0 L 9.109375 0 L 9.109375 -6.921875 C 9.109375 -7.535156 8.953125 -8.015625 8.640625 -8.359375 C 8.335938 -8.703125 7.90625 -8.875 7.34375 -8.875 C 6.976562 -8.875 6.660156 -8.796875 6.390625 -8.640625 C 6.128906 -8.484375 5.921875 -8.257812 5.765625 -7.96875 C 5.617188 -7.675781 5.546875 -7.328125 5.546875 -6.921875 Z M 5.546875 -6.921875 "/></g></g></g><g fill="#3a96f2" fill-opacity="1"><g transform="translate(82.412932, 26.719122)"><g><path d="M 8.46875 -12.3125 L 8.46875 -9.109375 L 0.359375 -9.109375 L 0.359375 -12.3125 Z M 1.921875 -15.25 L 6.34375 -15.25 L 6.34375 -3.953125 C 6.34375 -3.785156 6.367188 -3.644531 6.421875 -3.53125 C 6.484375 -3.414062 6.578125 -3.328125 6.703125 -3.265625 C 6.828125 -3.210938 6.984375 -3.1875 7.171875 -3.1875 C 7.304688 -3.1875 7.460938 -3.203125 7.640625 -3.234375 C 7.828125 -3.265625 7.960938 -3.289062 8.046875 -3.3125 L 8.6875 -0.203125 C 8.488281 -0.148438 8.207031 -0.0820312 7.84375 0 C 7.476562 0.09375 7.039062 0.148438 6.53125 0.171875 C 5.519531 0.222656 4.671875 0.117188 3.984375 -0.140625 C 3.296875 -0.398438 2.773438 -0.816406 2.421875 -1.390625 C 2.078125 -1.960938 1.910156 -2.679688 1.921875 -3.546875 Z M 1.921875 -15.25 "/></g></g></g><g fill="#3a96f2" fill-opacity="1"><g transform="translate(91.545328, 26.719122)"><g><path d="M 7.015625 0.21875 C 5.703125 0.21875 4.570312 -0.03125 3.625 -0.53125 C 2.675781 -1.039062 1.945312 -1.769531 1.4375 -2.71875 C 0.925781 -3.664062 0.671875 -4.800781 0.671875 -6.125 C 0.671875 -7.394531 0.925781 -8.503906 1.4375 -9.453125 C 1.957031 -10.398438 2.679688 -11.140625 3.609375 -11.671875 C 4.546875 -12.203125 5.648438 -12.46875 6.921875 -12.46875 C 7.847656 -12.46875 8.6875 -12.320312 9.4375 -12.03125 C 10.195312 -11.75 10.84375 -11.332031 11.375 -10.78125 C 11.90625 -10.226562 12.316406 -9.5625 12.609375 -8.78125 C 12.898438 -8.007812 13.046875 -7.132812 13.046875 -6.15625 L 13.046875 -5.125 L 2.046875 -5.125 L 2.046875 -7.5625 L 8.96875 -7.5625 C 8.96875 -7.914062 8.878906 -8.226562 8.703125 -8.5 C 8.523438 -8.769531 8.289062 -8.976562 8 -9.125 C 7.71875 -9.28125 7.390625 -9.359375 7.015625 -9.359375 C 6.660156 -9.359375 6.332031 -9.28125 6.03125 -9.125 C 5.726562 -8.976562 5.488281 -8.769531 5.3125 -8.5 C 5.132812 -8.226562 5.039062 -7.914062 5.03125 -7.5625 L 5.03125 -4.9375 C 5.03125 -4.539062 5.113281 -4.1875 5.28125 -3.875 C 5.445312 -3.5625 5.679688 -3.316406 5.984375 -3.140625 C 6.296875 -2.972656 6.671875 -2.890625 7.109375 -2.890625 C 7.421875 -2.890625 7.703125 -2.929688 7.953125 -3.015625 C 8.203125 -3.097656 8.414062 -3.21875 8.59375 -3.375 C 8.78125 -3.539062 8.914062 -3.738281 9 -3.96875 L 13.046875 -3.96875 C 12.898438 -3.113281 12.566406 -2.375 12.046875 -1.75 C 11.535156 -1.125 10.851562 -0.640625 10 -0.296875 C 9.144531 0.046875 8.148438 0.21875 7.015625 0.21875 Z M 7.015625 0.21875 "/></g></g></g><g fill="#3a96f2" fill-opacity="1"><g transform="translate(105.259936, 26.719122)"><g><path d="M 5.546875 -6.921875 L 5.546875 0 L 1.125 0 L 1.125 -12.3125 L 5.3125 -12.3125 L 5.3125 -9.96875 L 5.453125 -9.96875 C 5.710938 -10.75 6.179688 -11.359375 6.859375 -11.796875 C 7.535156 -12.242188 8.328125 -12.46875 9.234375 -12.46875 C 10.097656 -12.46875 10.851562 -12.265625 11.5 -11.859375 C 12.144531 -11.460938 12.644531 -10.914062 13 -10.21875 C 13.351562 -9.53125 13.53125 -8.742188 13.53125 -7.859375 L 13.53125 0 L 9.109375 0 L 9.109375 -6.921875 C 9.109375 -7.535156 8.953125 -8.015625 8.640625 -8.359375 C 8.328125 -8.703125 7.894531 -8.875 7.34375 -8.875 C 6.976562 -8.875 6.660156 -8.796875 6.390625 -8.640625 C 6.117188 -8.484375 5.910156 -8.257812 5.765625 -7.96875 C 5.617188 -7.675781 5.546875 -7.328125 5.546875 -6.921875 Z M 5.546875 -6.921875 "/></g></g></g><g fill="#3a96f2" fill-opacity="1"><g transform="translate(119.83972, 26.719122)"><g/></g></g><g fill="#3a96f2" fill-opacity="1"><g transform="translate(124.325804, 26.719122)"><g><path d="M 1.0625 0 L 1.0625 -16.40625 L 5.515625 -16.40625 L 5.515625 -3.59375 L 12.140625 -3.59375 L 12.140625 0 Z M 1.0625 0 "/></g></g></g><g fill="#3a96f2" fill-opacity="1"><g transform="translate(137.207285, 26.719122)"><g><path d="M 1.125 0 L 1.125 -12.3125 L 5.546875 -12.3125 L 5.546875 0 Z M 3.34375 -13.59375 C 2.738281 -13.59375 2.222656 -13.789062 1.796875 -14.1875 C 1.367188 -14.582031 1.15625 -15.054688 1.15625 -15.609375 C 1.15625 -16.160156 1.367188 -16.632812 1.796875 -17.03125 C 2.222656 -17.425781 2.734375 -17.625 3.328125 -17.625 C 3.929688 -17.625 4.445312 -17.425781 4.875 -17.03125 C 5.300781 -16.632812 5.515625 -16.160156 5.515625 -15.609375 C 5.515625 -15.054688 5.300781 -14.582031 4.875 -14.1875 C 4.445312 -13.789062 3.9375 -13.59375 3.34375 -13.59375 Z M 3.34375 -13.59375 "/></g></g></g><g fill="#3a96f2" fill-opacity="1"><g transform="translate(143.872329, 26.719122)"><g><path d="M 8.5 -12.3125 L 8.5 -9.109375 L 0.25 -9.109375 L 0.25 -12.3125 Z M 1.828125 0 L 1.828125 -12.65625 C 1.828125 -13.675781 2.007812 -14.519531 2.375 -15.1875 C 2.738281 -15.851562 3.25 -16.347656 3.90625 -16.671875 C 4.570312 -17.003906 5.351562 -17.171875 6.25 -17.171875 C 6.8125 -17.171875 7.359375 -17.128906 7.890625 -17.046875 C 8.421875 -16.960938 8.8125 -16.890625 9.0625 -16.828125 L 8.421875 -13.65625 C 8.265625 -13.695312 8.078125 -13.734375 7.859375 -13.765625 C 7.648438 -13.796875 7.46875 -13.8125 7.3125 -13.8125 C 6.894531 -13.8125 6.613281 -13.722656 6.46875 -13.546875 C 6.320312 -13.367188 6.25 -13.140625 6.25 -12.859375 L 6.25 0 Z M 1.828125 0 "/></g></g></g><g fill="#3a96f2" fill-opacity="1"><g transform="translate(152.940637, 26.719122)"><g><path d="M 8.46875 -12.3125 L 8.46875 -9.109375 L 0.359375 -9.109375 L 0.359375 -12.3125 Z M 1.921875 -15.25 L 6.34375 -15.25 L 6.34375 -3.953125 C 6.34375 -3.785156 6.367188 -3.644531 6.421875 -3.53125 C 6.484375 -3.414062 6.578125 -3.328125 6.703125 -3.265625 C 6.828125 -3.210938 6.984375 -3.1875 7.171875 -3.1875 C 7.304688 -3.1875 7.460938 -3.203125 7.640625 -3.234375 C 7.828125 -3.265625 7.960938 -3.289062 8.046875 -3.3125 L 8.6875 -0.203125 C 8.488281 -0.148438 8.207031 -0.0820312 7.84375 0 C 7.476562 0.09375 7.039062 0.148438 6.53125 0.171875 C 5.519531 0.222656 4.671875 0.117188 3.984375 -0.140625 C 3.296875 -0.398438 2.773438 -0.816406 2.421875 -1.390625 C 2.078125 -1.960938 1.910156 -2.679688 1.921875 -3.546875 Z M 1.921875 -15.25 "/></g></g></g></svg>